HIERARCHY
ROOT Model
{
	OFFSET 0 0 0
	CHANNELS 6 Xposition Yposition Zposition Zrotation Xrotation Yrotation
	JOINT Model1
	{
		OFFSET 0 -2.25479 2.99384
		CHANNELS 3 Zrotation Xrotation Yrotation
		JOINT Model2
		{
			OFFSET 12.111 0 0
			CHANNELS 3 Zrotation Xrotation Yrotation
			JOINT Model3
			{
				OFFSET 11.5502 0 0
				CHANNELS 3 Zrotation Xrotation Yrotation
				JOINT Model4
				{
					OFFSET 11.781 0 0
					CHANNELS 3 Zrotation Xrotation Yrotation
					JOINT Model5
					{
						OFFSET 20.0601 0 0
						CHANNELS 3 Zrotation Xrotation Yrotation
						JOINT Model6
						{
							OFFSET 11.1962 0 0
							CHANNELS 3 Zrotation Xrotation Yrotation
							End Site
							{
								OFFSET 0 0 0
							}
						}
					}
					JOINT Model7
					{
						OFFSET 10.8223 0.417534 3.51114
						CHANNELS 3 Zrotation Xrotation Yrotation
						JOINT Model8
						{
							OFFSET -6.07943 0 0
							CHANNELS 3 Zrotation Xrotation Yrotation
							JOINT Model9
							{
								OFFSET -0.277412 10.39 -0.051239
								CHANNELS 3 Zrotation Xrotation Yrotation
								JOINT Model10
								{
									OFFSET -3.4391 -0.282043 1.86679
									CHANNELS 3 Zrotation Xrotation Yrotation
									JOINT Model11
									{
										OFFSET 13.0269 0 0
										CHANNELS 3 Zrotation Xrotation Yrotation
										JOINT Model12
										{
											OFFSET 10.8866 0 0
											CHANNELS 3 Zrotation Xrotation Yrotation
											JOINT Model13
											{
												OFFSET 16.7317 0 0
												CHANNELS 3 Zrotation Xrotation Yrotation
												JOINT Model14
												{
													OFFSET 11.8292 0 0
													CHANNELS 3 Zrotation Xrotation Yrotation
													JOINT Model15
													{
														OFFSET 4.82751 -3.73566 -0.836517
														CHANNELS 3 Zrotation Xrotation Yrotation
														JOINT Model16
														{
															OFFSET 3.75311 -0.0582886 -0.0186462
															CHANNELS 3 Zrotation Xrotation Yrotation
															JOINT Model17
															{
																OFFSET 2.88689 0.0192337 0.014801
																CHANNELS 3 Zrotation Xrotation Yrotation
																End Site
																{
																	OFFSET 0 0 0
																}
															}
														}
													}
													JOINT Model18
													{
														OFFSET 9.72197 -3.06458 0.23877
														CHANNELS 3 Zrotation Xrotation Yrotation
														JOINT Model19
														{
															OFFSET 4.61131 0 0
															CHANNELS 3 Zrotation Xrotation Yrotation
															JOINT Model20
															{
																OFFSET 2.8969 -7.62939e-006 0
																CHANNELS 3 Zrotation Xrotation Yrotation
																End Site
																{
																	OFFSET 0 0 0
																}
															}
														}
													}
													JOINT Model21
													{
														OFFSET 9.54431 -0.745064 0.588928
														CHANNELS 3 Zrotation Xrotation Yrotation
														JOINT Model22
														{
															OFFSET 5.33978 0 0
															CHANNELS 3 Zrotation Xrotation Yrotation
															JOINT Model23
															{
																OFFSET 3.03619 7.62939e-006 0
																CHANNELS 3 Zrotation Xrotation Yrotation
																End Site
																{
																	OFFSET 0 0 0
																}
															}
														}
													}
													JOINT Model24
													{
														OFFSET 9.47758 1.51286 0.485107
														CHANNELS 3 Zrotation Xrotation Yrotation
														JOINT Model25
														{
															OFFSET 4.96136 7.62939e-006 0
															CHANNELS 3 Zrotation Xrotation Yrotation
															JOINT Model26
															{
																OFFSET 2.51965 0 0
																CHANNELS 3 Zrotation Xrotation Yrotation
																End Site
																{
																	OFFSET 0 0 0
																}
															}
														}
													}
													JOINT Model27
													{
														OFFSET 9.34247 3.34117 -0.239288
														CHANNELS 3 Zrotation Xrotation Yrotation
														JOINT Model28
														{
															OFFSET 3.28259 2.28882e-005 0
															CHANNELS 3 Zrotation Xrotation Yrotation
															JOINT Model29
															{
																OFFSET 2.1292 0 0
																CHANNELS 3 Zrotation Xrotation Yrotation
																End Site
																{
																	OFFSET 0 0 0
																}
															}
														}
													}
												}
											}
										}
									}
								}
							}
						}
					}
					JOINT Model30
					{
						OFFSET 10.8223 0.4179 -3.51108
						CHANNELS 3 Zrotation Xrotation Yrotation
						JOINT Model31
						{
							OFFSET 6.07943 0 0
							CHANNELS 3 Zrotation Xrotation Yrotation
							JOINT Model32
							{
								OFFSET 0.277412 -10.39 0.051239
								CHANNELS 3 Zrotation Xrotation Yrotation
								JOINT Model33
								{
									OFFSET 3.4391 0.282043 -1.86679
									CHANNELS 3 Zrotation Xrotation Yrotation
									JOINT Model34
									{
										OFFSET -13.0269 0 0
										CHANNELS 3 Zrotation Xrotation Yrotation
										JOINT Model35
										{
											OFFSET -10.8866 0 0
											CHANNELS 3 Zrotation Xrotation Yrotation
											JOINT Model36
											{
												OFFSET -16.7317 0 0
												CHANNELS 3 Zrotation Xrotation Yrotation
												JOINT Model37
												{
													OFFSET -11.8292 0 0
													CHANNELS 3 Zrotation Xrotation Yrotation
													JOINT Model38
													{
														OFFSET -4.82751 3.73566 0.836517
														CHANNELS 3 Zrotation Xrotation Yrotation
														JOINT Model39
														{
															OFFSET -3.75311 0.0582886 0.0186462
															CHANNELS 3 Zrotation Xrotation Yrotation
															JOINT Model40
															{
																OFFSET -2.88688 -0.0192337 -0.014801
																CHANNELS 3 Zrotation Xrotation Yrotation
																End Site
																{
																	OFFSET 0 0 0
																}
															}
														}
													}
													JOINT Model41
													{
														OFFSET -9.72197 3.06459 -0.23877
														CHANNELS 3 Zrotation Xrotation Yrotation
														JOINT Model42
														{
															OFFSET -4.6113 0 0
															CHANNELS 3 Zrotation Xrotation Yrotation
															JOINT Model43
															{
																OFFSET -2.8969 0 0
																CHANNELS 3 Zrotation Xrotation Yrotation
																End Site
																{
																	OFFSET 0 0 0
																}
															}
														}
													}
													JOINT Model44
													{
														OFFSET -9.5443 0.745064 -0.588928
														CHANNELS 3 Zrotation Xrotation Yrotation
														JOINT Model45
														{
															OFFSET -5.33978 0 0
															CHANNELS 3 Zrotation Xrotation Yrotation
															JOINT Model46
															{
																OFFSET -3.03619 -1.52588e-005 0
																CHANNELS 3 Zrotation Xrotation Yrotation
																End Site
																{
																	OFFSET 0 0 0
																}
															}
														}
													}
													JOINT Model47
													{
														OFFSET -9.47759 -1.51286 -0.485107
														CHANNELS 3 Zrotation Xrotation Yrotation
														JOINT Model48
														{
															OFFSET -4.96136 -1.52588e-005 0
															CHANNELS 3 Zrotation Xrotation Yrotation
															JOINT Model49
															{
																OFFSET -2.51966 0 0
																CHANNELS 3 Zrotation Xrotation Yrotation
																End Site
																{
																	OFFSET 0 0 0
																}
															}
														}
													}
													JOINT Model50
													{
														OFFSET -9.34246 -3.34118 0.239288
														CHANNELS 3 Zrotation Xrotation Yrotation
														JOINT Model51
														{
															OFFSET -3.2826 -2.28882e-005 0
															CHANNELS 3 Zrotation Xrotation Yrotation
															JOINT Model52
															{
																OFFSET -2.1292 0 0
																CHANNELS 3 Zrotation Xrotation Yrotation
																End Site
																{
																	OFFSET 0 0 0
																}
															}
														}
													}
												}
											}
										}
									}
								}
							}
						}
					}
				}
			}
		}
	}
	JOINT Model53
	{
		OFFSET 4.38026 -2.14632 -1.11517
		CHANNELS 3 Zrotation Xrotation Yrotation
		JOINT Model54
		{
			OFFSET 0 0 4.94998
			CHANNELS 3 Zrotation Xrotation Yrotation
			JOINT Model55
			{
				OFFSET 18.5642 0 0
				CHANNELS 3 Zrotation Xrotation Yrotation
				JOINT Model56
				{
					OFFSET 21.2884 0 0
					CHANNELS 3 Zrotation Xrotation Yrotation
					JOINT Model57
					{
						OFFSET 30.261 0 0
						CHANNELS 3 Zrotation Xrotation Yrotation
						JOINT Model58
						{
							OFFSET 11.7259 0 0
							CHANNELS 3 Zrotation Xrotation Yrotation
							JOINT Model59
							{
								OFFSET 10.682 0 0
								CHANNELS 3 Zrotation Xrotation Yrotation
								End Site
								{
									OFFSET 0 0 0
								}
							}
						}
					}
				}
			}
		}
	}
	JOINT Model60
	{
		OFFSET -4.38026 -2.14632 -1.11517
		CHANNELS 3 Zrotation Xrotation Yrotation
		JOINT Model61
		{
			OFFSET 0 0 -4.94998
			CHANNELS 3 Zrotation Xrotation Yrotation
			JOINT Model62
			{
				OFFSET -18.5642 0 0
				CHANNELS 3 Zrotation Xrotation Yrotation
				JOINT Model63
				{
					OFFSET -21.2884 0 0
					CHANNELS 3 Zrotation Xrotation Yrotation
					JOINT Model64
					{
						OFFSET -30.261 0 0
						CHANNELS 3 Zrotation Xrotation Yrotation
						JOINT Model65
						{
							OFFSET -11.7259 0 0
							CHANNELS 3 Zrotation Xrotation Yrotation
							JOINT Model66
							{
								OFFSET -10.682 0 0
								CHANNELS 3 Zrotation Xrotation Yrotation
								End Site
								{
									OFFSET 0 0 0
								}
							}
						}
					}
				}
			}
		}
	}
}
MOTION
Frames: 4
Frame Time: 0.033333
74.284 172.343 176.174 101.765 2.51232 89.1524 -180 4.29621e-031 -90 2.88386 -0.434935 -0.54425 5.76371 -0.897119 -1.06598 5.76371 -0.896684 -1.06602 29.6304 5.63354 8.16549 3.43693 5.23891 3.64881 120.092 75.5343 58.4939 -3.71636 1.01218 1.3071 -167.277 84.4999 48.8109 173.31 1.03019 -5.8041 -1.04881e-006 26.7095 3.51016e-005 -0.463286 -1.40373 -12.9643 -1.88458e-008 -2.11897 -2.31503e-007 -11.1257 2.31341 -23.4246 -72.0648 39.0385 39.3397 33.3638 2.10362 14.835 0.588947 0.308273 6.35287 -99.6409 81.413 100.35 -0.0181409 2.77199e-005 -0.117315 -0.124139 0.00241105 -0.799296 -79.8382 79.5773 80.5374 -0.000225774 -0.00022098 2.21824e-005 -0.000956223 0.000122817 -2.73373e-005 -66.7416 80.4058 67.2171 -0.00043713 1.58881e-005 -2.73311e-005 -0.000136601 -0.000109369 -5.46558e-005 -6.42159 81.2158 8.01779 -0.000218562 1.68359e-005 0.000212138 0.00090159 -0.000184899 -0.00021857 -59.9282 75.5373 58.5147 -2.14384 -9.22161 -2.41508 -167.277 84.4999 48.8109 166.964 -15.9098 -4.82189 7.01496e-006 -0.134266 2.91383e-005 -1.95754 -0.870736 -0.00691727 5.02809e-007 -1.28722 -1.56499e-007 -8.49463 0.123637 -1.66466 -72.0648 39.0385 39.3397 33.3638 2.10361 14.835 0.588946 0.308273 6.35287 -99.6409 81.413 100.35 -0.0181409 3.00994e-005 -0.117315 -0.124139 0.00241116 -0.799296 -79.8382 79.5773 80.5374 -0.000260655 -0.000218547 2.35604e-005 -0.000956238 0.000123022 -2.73343e-005 -66.7416 80.4058 67.2171 -0.000437142 1.49024e-005 -2.73291e-005 -0.000136617 -0.000109254 -5.46528e-005 -6.42159 81.2158 8.01779 -0.000218581 1.96093e-005 0.000212296 0.000901563 -0.000191204 -0.000218566 0.000811311 0.56661 89.91 34.9248 62.6298 -4.92461 -180 82.4181 180 32.2546 71.5277 -0.0140033 180 72.769 180 -35.0323 1.21315 -0.734628 -35.4947 3.60549e-007 -3.0577e-008 -180 -0.566579 -90.09 -1.4066 2.74549 -4.95387 3.09721e-006 8.4081 -1.87037e-007 27.5928 -12.5867 -8.73901 -2.97511e-007 -19.1505 -1.34318e-006 -56.8382 -4.07084 2.22184 -35.5526 -0.164426 0.00872058 
74.2858 172.338 176.171 101.728 2.45101 89.2008 -180 4.29621e-031 -90 2.86183 -0.432155 -0.560193 5.71955 -0.892155 -1.09816 5.71955 -0.89172 -1.0982 28.5313 5.53397 8.45052 4.7657 5.24389 3.6292 120.092 75.5343 58.4939 -3.56021 1.13747 1.32132 -167.277 84.4999 48.8109 173.523 0.880656 -5.80984 -9.26527e-007 26.5309 3.50468e-005 -0.501377 -1.56142 -13.0098 -1.98297e-008 -2.36228 -2.31542e-007 -11.3049 2.32893 -23.2103 -72.0648 39.0385 39.3397 33.3638 2.10362 14.835 0.588947 0.308273 6.35287 -99.6409 81.413 100.35 -0.0181409 2.77199e-005 -0.117315 -0.124139 0.00241105 -0.799296 -79.8382 79.5773 80.5374 -0.000225774 -0.00022098 2.21824e-005 -0.000956223 0.000122817 -2.73373e-005 -66.7416 80.4058 67.2171 -0.00043713 1.58881e-005 -2.73311e-005 -0.000136601 -0.000109369 -5.46558e-005 -6.42159 81.2158 8.01779 -0.000218562 1.68359e-005 0.000212138 0.00090159 -0.000184899 -0.00021857 -59.9282 75.5373 58.5147 -2.48784 -9.30718 -2.41514 -167.277 84.4999 48.8109 166.775 -15.9267 -5.03879 7.01544e-006 -0.135216 2.91383e-005 -1.95451 -0.790834 -0.00705918 5.03137e-007 -1.16729 -1.56492e-007 -8.45044 0.122664 -1.6606 -72.0648 39.0385 39.3397 33.3638 2.10361 14.835 0.588946 0.308273 6.35287 -99.6409 81.413 100.35 -0.0181409 3.00994e-005 -0.117315 -0.124139 0.00241116 -0.799296 -79.8382 79.5773 80.5374 -0.000260655 -0.000218547 2.35604e-005 -0.000956238 0.000123022 -2.73343e-005 -66.7416 80.4058 67.2171 -0.000437142 1.49024e-005 -2.73291e-005 -0.000136617 -0.000109254 -5.46528e-005 -6.42159 81.2158 8.01779 -0.000218581 1.96093e-005 0.000212296 0.000901563 -0.000191204 -0.000218566 0.000811311 0.56661 89.91 34.9324 62.6048 -4.94395 -180 82.4385 180 32.295 71.5396 -0.014015 180 72.7513 180 -34.9902 1.26073 -0.780649 -35.4947 3.5849e-007 -2.84297e-008 -180 -0.566579 -90.09 -1.40911 2.74948 -4.95369 3.09723e-006 8.41371 -1.8704e-007 27.5073 -12.5039 -8.71333 -2.94363e-007 -19.0236 -1.34215e-006 -56.8517 -4.30413 2.37716 -35.5483 -0.15213 0.00807985 
74.2883 172.345 176.166 101.658 2.39788 89.286 -180 4.29621e-031 -90 2.83494 -0.435175 -0.532366 5.66597 -0.896569 -1.0426 5.66597 -0.896134 -1.04265 27.6959 5.43544 7.92366 5.55419 5.22128 4.26041 120.092 75.5343 58.4939 -3.89544 1.0762 1.36239 -167.277 84.4999 48.8109 173.547 0.810344 -6.12153 -9.2892e-007 26.5344 3.50478e-005 -0.474993 -1.45852 -12.9406 -1.91856e-008 -2.20301 -2.31516e-007 -11.1478 2.30639 -23.3106 -72.0648 39.0385 39.3397 33.3638 2.10362 14.835 0.588947 0.308273 6.35287 -99.6409 81.413 100.35 -0.0181409 2.77199e-005 -0.117315 -0.124139 0.00241105 -0.799296 -79.8382 79.5773 80.5374 -0.000225774 -0.00022098 2.21824e-005 -0.000956223 0.000122817 -2.73373e-005 -66.7416 80.4058 67.2171 -0.00043713 1.58881e-005 -2.73311e-005 -0.000136601 -0.000109369 -5.46558e-005 -6.42159 81.2158 8.01779 -0.000218562 1.68359e-005 0.000212138 0.00090159 -0.000184899 -0.00021857 -59.9282 75.5373 58.5147 -2.4144 -9.1953 -2.38298 -167.277 84.4999 48.8109 166.869 -15.9218 -4.94979 7.0153e-006 -0.134947 2.91383e-005 -1.95331 -0.758573 -0.00710757 5.03269e-007 -1.11888 -1.56489e-007 -8.57659 0.132933 -1.77178 -72.0648 39.0385 39.3397 33.3638 2.10361 14.835 0.588946 0.308273 6.35287 -99.6409 81.413 100.35 -0.0181409 3.00994e-005 -0.117315 -0.124139 0.00241116 -0.799296 -79.8382 79.5773 80.5374 -0.000260655 -0.000218547 2.35604e-005 -0.000956238 0.000123022 -2.73343e-005 -66.7416 80.4058 67.2171 -0.000437142 1.49024e-005 -2.73291e-005 -0.000136617 -0.000109254 -5.46528e-005 -6.42159 81.2158 8.01779 -0.000218581 1.96093e-005 0.000212296 0.000901563 -0.000191204 -0.000218566 0.000811311 0.56661 89.91 34.9498 62.5475 -5.00965 -180 82.4702 180 32.3407 71.5481 -0.0140249 180 72.7386 180 -34.9617 1.24959 -0.76865 -35.4947 3.55165e-007 -2.53463e-008 -180 -0.566579 -90.09 -1.33915 2.80499 -4.87664 3.09731e-006 8.43701 -1.87051e-007 27.2569 -12.4599 -8.73284 -2.92722e-007 -18.9573 -1.34162e-006 -56.7782 -4.69458 2.64646 -35.5418 -0.133605 0.00711155 
74.2951 172.356 176.159 101.599 2.38752 89.377 -180 4.29621e-031 -90 2.81871 -0.450134 -0.472098 5.63388 -0.923363 -0.921533 5.63388 -0.922928 -0.921576 27.7649 5.42307 6.91565 5.08267 5.18944 5.08623 120.092 75.5343 58.4939 -4.60529 0.793837 1.39484 -167.277 84.4999 48.8109 173.336 0.885178 -6.63698 -1.09219e-006 26.7727 3.51211e-005 -0.377087 -1.05982 -12.7337 -1.66969e-008 -1.58733 -2.31434e-007 -10.6188 2.2401 -23.7639 -72.0648 39.0385 39.3397 33.3638 2.10362 14.835 0.588947 0.308273 6.35287 -99.6409 81.413 100.35 -0.0181409 2.77199e-005 -0.117315 -0.124139 0.00241105 -0.799296 -79.8382 79.5773 80.5374 -0.000225774 -0.00022098 2.21824e-005 -0.000956223 0.000122817 -2.73373e-005 -66.7416 80.4058 67.2171 -0.00043713 1.58881e-005 -2.73311e-005 -0.000136601 -0.000109369 -5.46558e-005 -6.42159 81.2158 8.01779 -0.000218562 1.68359e-005 0.000212138 0.00090159 -0.000184899 -0.00021857 -59.9282 75.5373 58.5147 -2.01127 -8.9758 -2.34262 -167.277 84.4999 48.8109 167.157 -15.8897 -4.58859 7.0144e-006 -0.133164 2.91383e-005 -1.95036 -0.67976 -0.00726031 5.03592e-007 -1.00059 -1.56483e-007 -8.72588 0.143596 -1.88227 -72.0648 39.0385 39.3397 33.3638 2.10361 14.835 0.588946 0.308273 6.35287 -99.6409 81.413 100.35 -0.0181409 3.00994e-005 -0.117315 -0.124139 0.00241116 -0.799296 -79.8382 79.5773 80.5374 -0.000260655 -0.000218547 2.35604e-005 -0.000956238 0.000123022 -2.73343e-005 -66.7416 80.4058 67.2171 -0.000437142 1.49024e-005 -2.73291e-005 -0.000136617 -0.000109254 -5.46528e-005 -6.42159 81.2158 8.01779 -0.000218581 1.96093e-005 0.000212296 0.000901563 -0.000191204 -0.000218566 0.000811311 0.56661 89.91 34.9723 62.4663 -5.08062 -180 82.5306 180 32.3789 71.5647 -0.0140416 180 72.7138 180 -34.9578 1.16465 -0.683921 -35.4947 3.50603e-007 -2.13476e-008 -180 -0.566579 -90.09 -1.21388 2.85916 -4.77453 3.09732e-006 8.44139 -1.87053e-007 26.944 -12.4507 -8.77783 -2.92415e-007 -18.9449 -1.34152e-006 -56.6565 -5.10194 2.93268 -35.5356 -0.116147 0.00619516 
